<svg id="SvgjsSvg1030" width="5000px" height="2750.110180696342px" xmlns="http://www.w3.org/2000/svg" version="1.1" xmlns:xlink="http://www.w3.org/1999/xlink" xmlns:svgjs="http://svgjs.com/svgjs" viewBox="0 0 531.796875 292.5"><defs id="SvgjsDefs1031"></defs><g id="SvgjsG1033" transform="rotate(0 265.890625 90)"><svg height="180" viewBox="0 0 153.90692138671875 160.10000610351562" xmlns="http://www.w3.org/2000/svg" version="1.1" xmlns:xlink="http://www.w3.org/1999/xlink" xmlns:svgjs="http://svgjs.com/svgjs" preserveAspectRatio="none" width="173.03125" x="179.375" y="0"><g><svg viewBox="23.119251251220703 19.899999618530273 153.90692138671875 160.10000610351562" height="160.10000610351562" width="153.90692138671875" xmlns="http://www.w3.org/2000/svg" data-type="color">
    <g>
        <path d="M53.4 80.7c-.9-.4-1.7-.9-2.6-1.3.8.6 1.7 1 2.6 1.3z" data-color="1" fill="rgb(210, 210, 210)"></path>
        <path d="M38.8 174.9c3.2-.5 6.4-1 9.6-1.4 13.3-1.7 11.4-19.2 23.8-31.3 8.6-8.3 14.4-12.7 28.2-14.2 13.9-1.5 21.7-21.2 26.8-26.5l.8 9.2s6.5 2.7 11 8.2c8 9.7 4.9 13.3-.6 17.6-3.8 3-7.3-1.3-13 .2-.1 1.5-.5 3.1-1.5 4.8-7.6 13-8.5 15.5-7.3 23.5 1.3 8 2 8.3 4.3 9.4 2.3 1.1 2.7 3.7 2.8 5.6h53c3.7-101.7-25.3-130.1-25.3-130.1s2.9 5.8 9 25.2c4.7 14.8 4.4 35.6 1.8 50-22.1-43.9-62.5-40.5-83.4-36.5-8.9 1.7-14.4-.2-18.5-5.9C64 83.9 69.7 84.5 73 84c4.3-.6 9.2-5 11.5-8 2.9-3.8-1.1-8.5-4-11.4-2.9-2.9-6.6-6.1-7.3-12.3-.6-5.3-7.8-11.5-9.3-13.3-1.5-1.8-2.4-2.5-4.2-5.8-1.6-3-1.7-10-1.8-12.7 0-.4-.3-.6-.7-.6-.1 0-.2 0-.3.1-2 1.1-5.2 4.2-8.8 12.3-1.5 3.4-4.5-.5-13.1 7.2-1.5 1.3-8-9-10-9.8-2-.8-3.2 15.9.6 21.6 3.3 5.3.6 77.4 13.2 123.6z" data-color="2" fill="rgb(143, 143, 143)"></path>
    </g>
</svg></g><defs id="SvgjsDefs1032"></defs></svg></g><g id="SvgjsG1035" transform="rotate(0 265.8984375 232.2578125)"><svg xmlns="http://www.w3.org/2000/svg" xmlns:xlink="http://www.w3.org/1999/xlink" width="531.796875" viewBox="1.9600000381469727 12 531.7999877929688 38.52000045776367" overflow="visible" style="overflow: visible;" transform="" version="1.1" xmlns:svgjs="http://svgjs.com/svgjs" preserveAspectRatio="none" height="38.515625" x="0" y="213" fill="#000000" stroke="none"><path stroke="none" fill="rgb(143, 143, 143)" d="M12.08 14.40L12.08 14.40Q14.36 14.40 15.78 14.82L15.78 14.82L15.78 14.82Q17.20 15.24 18.56 16L18.56 16L18.56 16Q19 16.24 19.34 16.40L19.34 16.40L19.34 16.40Q19.68 16.56 19.92 16.56L19.92 16.56L19.92 16.56Q20.28 16.56 20.48 16.14L20.48 16.14L20.48 16.14Q20.68 15.72 20.80 14.80L20.80 14.80L21.72 14.80L21.72 14.80Q21.52 17.68 21.52 24.56L21.52 24.56L20.60 24.56L20.60 24.56Q20.44 22.28 19.56 20.20L19.56 20.20L19.56 20.20Q18.68 18.12 17.16 16.80L17.16 16.80L17.16 16.80Q15.64 15.48 13.64 15.48L13.64 15.48L13.64 15.48Q11.80 15.48 10.68 16.46L10.68 16.46L10.68 16.46Q9.56 17.44 9.56 19.20L9.56 19.20L9.56 19.20Q9.56 20.56 10.16 21.56L10.16 21.56L10.16 21.56Q10.76 22.56 11.92 23.50L11.92 23.50L11.92 23.50Q13.08 24.44 15.72 26.28L15.72 26.28L15.72 26.28Q15.96 26.40 16.18 26.56L16.18 26.56L16.18 26.56Q16.40 26.72 16.60 26.88L16.60 26.88L16.60 26.88Q18.80 28.40 20.12 29.58L20.12 29.58L20.12 29.58Q21.44 30.76 22.26 32.32L22.26 32.32L22.26 32.32Q23.08 33.88 23.08 35.92L23.08 35.92L23.08 35.92Q23.08 38.52 21.62 40.30L21.62 40.30L21.62 40.30Q20.16 42.08 17.68 42.96L17.68 42.96L17.68 42.96Q15.20 43.84 12.20 43.84L12.20 43.84L12.20 43.84Q9.76 43.84 8.14 43.44L8.14 43.44L8.14 43.44Q6.52 43.04 5.12 42.36L5.12 42.36L5.12 42.36Q4.24 41.80 3.76 41.80L3.76 41.80L3.76 41.80Q3.40 41.80 3.20 42.22L3.20 42.22L3.20 42.22Q3 42.64 2.88 43.56L2.88 43.56L1.96 43.56L1.96 43.56Q2.12 40.84 2.12 31.96L2.12 31.96L3.04 31.96L3.04 31.96Q3.32 36.72 5.04 39.68L5.04 39.68L5.04 39.68Q6.76 42.64 10.32 42.64L10.32 42.64L10.32 42.64Q12.52 42.64 13.82 41.60L13.82 41.60L13.82 41.60Q15.12 40.56 15.12 38.72L15.12 38.72L15.12 38.72Q15.12 36.44 13.70 34.82L13.70 34.82L13.70 34.82Q12.28 33.20 9.28 31.20L9.28 31.20L9.28 31.20Q6.88 29.60 5.44 28.40L5.44 28.40L5.44 28.40Q4 27.20 3.08 25.62L3.08 25.62L3.08 25.62Q2.16 24.04 2.16 21.96L2.16 21.96L2.16 21.96Q2.16 19.44 3.52 17.74L3.52 17.74L3.52 17.74Q4.88 16.04 7.14 15.22L7.14 15.22L7.14 15.22Q9.40 14.40 12.08 14.40L12.08 14.40ZM47.44 22.08L47.44 38.92L47.44 38.92Q47.44 40.76 47.94 41.60L47.94 41.60L47.94 41.60Q48.44 42.44 49.68 42.44L49.68 42.44L49.68 43.28L49.68 43.28Q48.44 43.16 47.20 43.16L47.20 43.16L47.20 43.16Q43.04 43.16 40.24 43.72L40.24 43.72L40.24 40.84L40.24 40.84Q38.44 43.84 33.88 43.84L33.88 43.84L33.88 43.84Q30.68 43.84 29.36 42.24L29.36 42.24L29.36 42.24Q28.76 41.52 28.48 40.30L28.48 40.30L28.48 40.30Q28.20 39.08 28.20 37.08L28.20 37.08L28.20 26.88L28.20 26.88Q28.20 25.04 27.70 24.20L27.70 24.20L27.70 24.20Q27.20 23.36 25.96 23.36L25.96 23.36L25.96 22.52L25.96 22.52Q27.20 22.64 28.44 22.64L28.44 22.64L28.44 22.64Q32.60 22.64 35.40 22.08L35.40 22.08L35.40 39.24L35.40 39.24Q35.40 40.52 35.86 41.14L35.86 41.14L35.86 41.14Q36.32 41.76 37.36 41.76L37.36 41.76L37.36 41.76Q38.52 41.76 39.38 40.94L39.38 40.94L39.38 40.94Q40.24 40.12 40.24 38.88L40.24 38.88L40.24 26.88L40.24 26.88Q40.24 25.04 39.74 24.20L39.74 24.20L39.74 24.20Q39.24 23.36 38 23.36L38 23.36L38 22.52L38 22.52Q39.24 22.64 40.48 22.64L40.48 22.64L40.48 22.64Q44.64 22.64 47.44 22.08L47.44 22.08ZM66.84 21.96L66.84 21.96Q68.80 21.96 69.66 23.16L69.66 23.16L69.66 23.16Q70.52 24.36 70.52 26L70.52 26L70.52 26Q70.52 27.80 69.50 28.86L69.50 28.86L69.50 28.86Q68.48 29.92 66.84 29.92L66.84 29.92L66.84 29.92Q65.12 29.92 64.20 29.14L64.20 29.14L64.20 29.14Q63.28 28.36 63.28 27.04L63.28 27.04L63.28 27.04Q63.28 24.68 65.32 23.32L65.32 23.32L65.32 23.32Q64.60 23.32 64.04 23.60L64.04 23.60L64.04 23.60Q63.04 24.04 62.36 25.02L62.36 25.02L62.36 25.02Q61.68 26 61.68 27.16L61.68 27.16L61.68 39.16L61.68 39.16Q61.68 41.04 62.46 41.74L62.46 41.74L62.46 41.74Q63.24 42.44 65.12 42.44L65.12 42.44L65.12 43.28L65.12 43.28Q64.60 43.28 64.24 43.24L64.24 43.24L64.24 43.24Q60.04 43.12 58.64 43.12L58.64 43.12L58.64 43.12Q57.40 43.12 53.08 43.24L53.08 43.24L53.08 43.24Q52.76 43.28 52.24 43.28L52.24 43.28L52.24 42.44L52.24 42.44Q53.48 42.44 53.98 41.82L53.98 41.82L53.98 41.82Q54.48 41.20 54.48 39.56L54.48 39.56L54.48 26.88L54.48 26.88Q54.48 25.04 53.98 24.20L53.98 24.20L53.98 24.20Q53.48 23.36 52.24 23.36L52.24 23.36L52.24 22.52L52.24 22.52Q53.52 22.64 54.72 22.64L54.72 22.64L54.72 22.64Q58.88 22.64 61.68 22.08L61.68 22.08L61.68 24.96L61.68 24.96Q63.20 21.96 66.84 21.96L66.84 21.96ZM88.28 21.96L88.28 21.96Q91.48 21.96 92.80 23.56L92.80 23.56L92.80 23.56Q93.40 24.28 93.68 25.50L93.68 25.50L93.68 25.50Q93.96 26.72 93.96 28.72L93.96 28.72L93.96 39.56L93.96 39.56Q93.96 41.20 94.46 41.82L94.46 41.82L94.46 41.82Q94.96 42.44 96.20 42.44L96.20 42.44L96.20 43.28L96.20 43.28Q91.88 43.12 90.60 43.12L90.60 43.12L90.60 43.12Q89.24 43.12 84.92 43.28L84.92 43.28L84.92 42.44L84.92 42.44Q85.96 42.44 86.36 41.82L86.36 41.82L86.36 41.82Q86.76 41.20 86.76 39.56L86.76 39.56L86.76 26.56L86.76 26.56Q86.76 25.28 86.30 24.66L86.30 24.66L86.30 24.66Q85.84 24.04 84.80 24.04L84.80 24.04L84.80 24.04Q83.64 24.04 82.78 24.86L82.78 24.86L82.78 24.86Q81.92 25.68 81.92 26.92L81.92 26.92L81.92 39.56L81.92 39.56Q81.92 41.20 82.32 41.82L82.32 41.82L82.32 41.82Q82.72 42.44 83.76 42.44L83.76 42.44L83.76 43.28L83.76 43.28Q79.76 43.12 78.48 43.12L78.48 43.12L78.48 43.12Q77.12 43.12 72.48 43.28L72.48 43.28L72.48 42.44L72.48 42.44Q73.72 42.44 74.22 41.82L74.22 41.82L74.22 41.82Q74.72 41.20 74.72 39.56L74.72 39.56L74.72 26.88L74.72 26.88Q74.72 25.04 74.22 24.20L74.22 24.20L74.22 24.20Q73.72 23.36 72.48 23.36L72.48 23.36L72.48 22.52L72.48 22.52Q73.76 22.64 74.96 22.64L74.96 22.64L74.96 22.64Q79.12 22.64 81.92 22.08L81.92 22.08L81.92 24.96L81.92 24.96Q83.72 21.96 88.28 21.96L88.28 21.96ZM103.68 43.56L103.68 43.56Q101.12 43.56 99.82 42.18L99.82 42.18L99.82 42.18Q98.52 40.80 98.52 38.72L98.52 38.72L98.52 38.72Q98.52 36.92 99.46 35.74L99.46 35.74L99.46 35.74Q100.40 34.56 101.68 33.92L101.68 33.92L101.68 33.92Q102.96 33.28 105 32.60L105 32.60L105 32.60Q107.16 31.88 108.16 31.28L108.16 31.28L108.16 31.28Q109.16 30.68 109.16 29.60L109.16 29.60L109.16 26.04L109.16 26.04Q109.16 24.76 108.52 23.76L108.52 23.76L108.52 23.76Q107.88 22.76 106.32 22.76L106.32 22.76L106.32 22.76Q105.08 22.76 104.08 23.44L104.08 23.44L104.08 23.44Q105.44 23.92 106.10 24.86L106.10 24.86L106.10 24.86Q106.76 25.80 106.76 26.96L106.76 26.96L106.76 26.96Q106.76 28.52 105.66 29.46L105.66 29.46L105.66 29.46Q104.56 30.40 103 30.40L103 30.40L103 30.40Q101.44 30.40 100.54 29.42L100.54 29.42L100.54 29.42Q99.64 28.44 99.64 26.92L99.64 26.92L99.64 26.92Q99.64 25.72 100.24 24.84L100.24 24.84L100.24 24.84Q100.84 23.96 102.12 23.24L102.12 23.24L102.12 23.24Q104.36 21.96 108.52 21.96L108.52 21.96L108.52 21.96Q110.72 21.96 112.32 22.38L112.32 22.38L112.32 22.38Q113.92 22.80 115.04 23.96L115.04 23.96L115.04 23.96Q115.84 24.80 116.10 26.06L116.10 26.06L116.10 26.06Q116.36 27.32 116.36 29.56L116.36 29.56L116.36 40.28L116.36 40.28Q116.36 41.28 116.50 41.64L116.50 41.64L116.50 41.64Q116.64 42 117 42L117 42L117 42Q117.28 42 117.60 41.82L117.60 41.82L117.60 41.82Q117.92 41.64 118.20 41.40L118.20 41.40L118.60 42.08L118.60 42.08Q116.88 43.56 113.68 43.56L113.68 43.56L113.68 43.56Q111.28 43.56 110.32 42.74L110.32 42.74L110.32 42.74Q109.36 41.92 109.28 40.52L109.28 40.52L109.28 40.52Q107.40 43.56 103.68 43.56L103.68 43.56ZM107.68 40.36L107.68 40.36Q108.52 40.36 109.16 39.68L109.16 39.68L109.16 31.24L109.16 31.24Q108.80 31.84 107.84 32.80L107.84 32.80L107.84 32.80Q106.76 33.84 106.20 34.82L106.20 34.82L106.20 34.82Q105.64 35.80 105.64 37.48L105.64 37.48L105.64 37.48Q105.64 40.36 107.68 40.36L107.68 40.36ZM141.36 38.88L141.36 38.88Q141.36 40.72 141.86 41.56L141.86 41.56L141.86 41.56Q142.36 42.40 143.60 42.40L143.60 42.40L143.60 43.24L143.60 43.24Q142.36 43.12 141.12 43.12L141.12 43.12L141.12 43.12Q136.96 43.12 134.16 43.68L134.16 43.68L134.16 40.84L134.16 40.84Q133.32 42.40 132.18 43.12L132.18 43.12L132.18 43.12Q131.04 43.84 129.28 43.84L129.28 43.84L129.28 43.84Q125.60 43.84 123.36 41.10L123.36 41.10L123.36 41.10Q121.12 38.36 121.12 32.76L121.12 32.76L121.12 32.76Q121.12 27.44 123.50 24.70L123.50 24.70L123.50 24.70Q125.88 21.96 130 21.96L130 21.96L130 21.96Q132.56 21.96 134.16 22.96L134.16 22.96L134.16 16.80L134.16 16.80Q134.16 14.96 133.66 14.12L133.66 14.12L133.66 14.12Q133.16 13.28 131.92 13.28L131.92 13.28L131.92 12.44L131.92 12.44Q133.16 12.56 134.40 12.56L134.40 12.56L134.40 12.56Q138.56 12.56 141.36 12L141.36 12L141.36 38.88ZM131.28 41.76L131.28 41.76Q132.44 41.76 133.30 40.94L133.30 40.94L133.30 40.94Q134.16 40.12 134.16 38.88L134.16 38.88L134.16 23.80L134.16 23.80Q133.28 23.28 132.28 23.28L132.28 23.28L132.28 23.28Q130.40 23.28 129.50 25.66L129.50 25.66L129.50 25.66Q128.60 28.04 128.60 32.88L128.60 32.88L128.60 32.88Q128.60 37.80 129.32 39.78L129.32 39.78L129.32 39.78Q130.04 41.76 131.28 41.76L131.28 41.76ZM151.28 43.56L151.28 43.56Q148.72 43.56 147.42 42.18L147.42 42.18L147.42 42.18Q146.12 40.80 146.12 38.72L146.12 38.72L146.12 38.72Q146.12 36.92 147.06 35.74L147.06 35.74L147.06 35.74Q148 34.56 149.28 33.92L149.28 33.92L149.28 33.92Q150.56 33.28 152.60 32.60L152.60 32.60L152.60 32.60Q154.76 31.88 155.76 31.28L155.76 31.28L155.76 31.28Q156.76 30.68 156.76 29.60L156.76 29.60L156.76 26.04L156.76 26.04Q156.76 24.76 156.12 23.76L156.12 23.76L156.12 23.76Q155.48 22.76 153.92 22.76L153.92 22.76L153.92 22.76Q152.68 22.76 151.68 23.44L151.68 23.44L151.68 23.44Q153.04 23.92 153.70 24.86L153.70 24.86L153.70 24.86Q154.36 25.80 154.36 26.96L154.36 26.96L154.36 26.96Q154.36 28.52 153.26 29.46L153.26 29.46L153.26 29.46Q152.16 30.40 150.60 30.40L150.60 30.40L150.60 30.40Q149.04 30.40 148.14 29.42L148.14 29.42L148.14 29.42Q147.24 28.44 147.24 26.92L147.24 26.92L147.24 26.92Q147.24 25.72 147.84 24.84L147.84 24.84L147.84 24.84Q148.44 23.96 149.72 23.24L149.72 23.24L149.72 23.24Q151.96 21.96 156.12 21.96L156.12 21.96L156.12 21.96Q158.32 21.96 159.92 22.38L159.92 22.38L159.92 22.38Q161.52 22.80 162.64 23.96L162.64 23.96L162.64 23.96Q163.44 24.80 163.70 26.06L163.70 26.06L163.70 26.06Q163.96 27.32 163.96 29.56L163.96 29.56L163.96 40.28L163.96 40.28Q163.96 41.28 164.10 41.64L164.10 41.64L164.10 41.64Q164.24 42 164.60 42L164.60 42L164.60 42Q164.88 42 165.20 41.82L165.20 41.82L165.20 41.82Q165.52 41.64 165.80 41.40L165.80 41.40L166.20 42.08L166.20 42.08Q164.48 43.56 161.28 43.56L161.28 43.56L161.28 43.56Q158.88 43.56 157.92 42.74L157.92 42.74L157.92 42.74Q156.96 41.92 156.88 40.52L156.88 40.52L156.88 40.52Q155 43.56 151.28 43.56L151.28 43.56ZM155.28 40.36L155.28 40.36Q156.12 40.36 156.76 39.68L156.76 39.68L156.76 31.24L156.76 31.24Q156.40 31.84 155.44 32.80L155.44 32.80L155.44 32.80Q154.36 33.84 153.80 34.82L153.80 34.82L153.80 34.82Q153.24 35.80 153.24 37.48L153.24 37.48L153.24 37.48Q153.24 40.36 155.28 40.36L155.28 40.36ZM177.64 12L177.64 39.56L177.64 39.56Q177.64 41.20 178.14 41.82L178.14 41.82L178.14 41.82Q178.64 42.44 179.88 42.44L179.88 42.44L179.88 43.28L179.88 43.28Q175.56 43.12 174.20 43.12L174.20 43.12L174.20 43.12Q172.84 43.12 168.20 43.28L168.20 43.28L168.20 42.44L168.20 42.44Q169.44 42.44 169.94 41.82L169.94 41.82L169.94 41.82Q170.44 41.20 170.44 39.56L170.44 39.56L170.44 16.80L170.44 16.80Q170.44 14.96 169.94 14.12L169.94 14.12L169.94 14.12Q169.44 13.28 168.20 13.28L168.20 13.28L168.20 12.44L168.20 12.44Q169.44 12.56 170.68 12.56L170.68 12.56L170.68 12.56Q174.84 12.56 177.64 12L177.64 12ZM216.64 15.08L216.64 15.08Q218.52 15.08 219.72 14.96L219.72 14.96L219.72 15.76L219.72 15.76Q218.68 16.28 217.62 17.64L217.62 17.64L217.62 17.64Q216.56 19 215.72 21.36L215.72 21.36L207.92 43.28L207.92 43.28Q206.64 43.20 205.80 43.20L205.80 43.20L205.80 43.20Q205 43.20 203.72 43.28L203.72 43.28L193.24 18.32L193.24 18.32Q192.72 17.04 192.10 16.42L192.10 16.42L192.10 16.42Q191.48 15.80 190.88 15.76L190.88 15.76L190.88 14.96L190.88 14.96Q193.76 15.08 198.16 15.08L198.16 15.08L198.16 15.08Q202.72 15.08 204.88 14.96L204.88 14.96L204.88 15.76L204.88 15.76Q203.36 15.84 202.72 16.12L202.72 16.12L202.72 16.12Q202.08 16.40 202.08 17.24L202.08 17.24L202.08 17.24Q202.08 17.92 202.56 19.12L202.56 19.12L209.48 36.16L213.36 25.28L213.36 25.28Q214.68 21.60 214.68 19.36L214.68 19.36L214.68 19.36Q214.68 15.88 211.40 15.76L211.40 15.76L211.40 14.96L211.40 14.96Q214.40 15.08 216.64 15.08L216.64 15.08ZM233.56 39.48L233.56 39.48Q236.48 39.48 238.40 36.80L238.40 36.80L239.08 37.04L239.08 37.04Q238.20 39.84 236.10 41.84L236.10 41.84L236.10 41.84Q234 43.84 230.72 43.84L230.72 43.84L230.72 43.84Q226.52 43.84 224 41.24L224 41.24L224 41.24Q221.48 38.64 221.48 32.92L221.48 32.92L221.48 32.92Q221.48 27.44 224.30 24.70L224.30 24.70L224.30 24.70Q227.12 21.96 231.76 21.96L231.76 21.96L231.76 21.96Q239.32 21.96 239.32 30.92L239.32 30.92L229 30.92L229 30.92Q228.96 31.40 228.96 32.36L228.96 32.36L228.96 32.36Q228.96 36.20 230.30 37.84L230.30 37.84L230.30 37.84Q231.64 39.48 233.56 39.48L233.56 39.48ZM231.48 22.88L231.48 22.88Q229.24 22.88 228.84 30.16L228.84 30.16L233.48 30.16L233.48 30.16Q233.52 26.96 233.02 24.92L233.02 24.92L233.02 24.92Q232.52 22.88 231.48 22.88L231.48 22.88ZM251.44 16.04L251.44 22.52L255.36 22.52L255.36 23.32L251.44 23.32L251.44 39.92L251.44 39.92Q251.44 40.72 251.72 41.04L251.72 41.04L251.72 41.04Q252 41.36 252.64 41.36L252.64 41.36L252.64 41.36Q253.12 41.36 253.72 41.08L253.72 41.08L253.72 41.08Q254.32 40.80 254.80 40.20L254.80 40.20L255.40 40.68L255.40 40.68Q253.56 43.84 249.72 43.84L249.72 43.84L249.72 43.84Q246.96 43.84 245.60 42.48L245.60 42.48L245.60 42.48Q244.76 41.64 244.50 40.40L244.50 40.40L244.50 40.40Q244.24 39.16 244.24 36.92L244.24 36.92L244.24 23.32L241.20 23.32L241.20 22.52L244.24 22.52L244.24 17.80L244.24 17.80Q246.40 17.80 248.14 17.38L248.14 17.38L248.14 17.38Q249.88 16.96 251.44 16.04L251.44 16.04ZM269.68 39.48L269.68 39.48Q272.60 39.48 274.52 36.80L274.52 36.80L275.20 37.04L275.20 37.04Q274.32 39.84 272.22 41.84L272.22 41.84L272.22 41.84Q270.12 43.84 266.84 43.84L266.84 43.84L266.84 43.84Q262.64 43.84 260.12 41.24L260.12 41.24L260.12 41.24Q257.60 38.64 257.60 32.92L257.60 32.92L257.60 32.92Q257.60 27.44 260.42 24.70L260.42 24.70L260.42 24.70Q263.24 21.96 267.88 21.96L267.88 21.96L267.88 21.96Q275.44 21.96 275.44 30.92L275.44 30.92L265.12 30.92L265.12 30.92Q265.08 31.40 265.08 32.36L265.08 32.36L265.08 32.36Q265.08 36.20 266.42 37.84L266.42 37.84L266.42 37.84Q267.76 39.48 269.68 39.48L269.68 39.48ZM267.60 22.88L267.60 22.88Q265.36 22.88 264.96 30.16L264.96 30.16L269.60 30.16L269.60 30.16Q269.64 26.96 269.14 24.92L269.14 24.92L269.14 24.92Q268.64 22.88 267.60 22.88L267.60 22.88ZM292.92 21.96L292.92 21.96Q294.88 21.96 295.74 23.16L295.74 23.16L295.74 23.16Q296.60 24.36 296.60 26L296.60 26L296.60 26Q296.60 27.80 295.58 28.86L295.58 28.86L295.58 28.86Q294.56 29.92 292.92 29.92L292.92 29.92L292.92 29.92Q291.20 29.92 290.28 29.14L290.28 29.14L290.28 29.14Q289.36 28.36 289.36 27.04L289.36 27.04L289.36 27.04Q289.36 24.68 291.40 23.32L291.40 23.32L291.40 23.32Q290.68 23.32 290.12 23.60L290.12 23.60L290.12 23.60Q289.12 24.04 288.44 25.02L288.44 25.02L288.44 25.02Q287.76 26 287.76 27.16L287.76 27.16L287.76 39.16L287.76 39.16Q287.76 41.04 288.54 41.74L288.54 41.74L288.54 41.74Q289.32 42.44 291.20 42.44L291.20 42.44L291.20 43.28L291.20 43.28Q290.68 43.28 290.32 43.24L290.32 43.24L290.32 43.24Q286.12 43.12 284.72 43.12L284.72 43.12L284.72 43.12Q283.48 43.12 279.16 43.24L279.16 43.24L279.16 43.24Q278.84 43.28 278.32 43.28L278.32 43.28L278.32 42.44L278.32 42.44Q279.56 42.44 280.06 41.82L280.06 41.82L280.06 41.82Q280.56 41.20 280.56 39.56L280.56 39.56L280.56 26.88L280.56 26.88Q280.56 25.04 280.06 24.20L280.06 24.20L280.06 24.20Q279.56 23.36 278.32 23.36L278.32 23.36L278.32 22.52L278.32 22.52Q279.60 22.64 280.80 22.64L280.80 22.64L280.80 22.64Q284.96 22.64 287.76 22.08L287.76 22.08L287.76 24.96L287.76 24.96Q289.28 21.96 292.92 21.96L292.92 21.96ZM304.16 12L304.16 12Q306.24 12 307.38 12.88L307.38 12.88L307.38 12.88Q308.52 13.76 308.52 15.44L308.52 15.44L308.52 15.44Q308.52 17.12 307.38 18L307.38 18L307.38 18Q306.24 18.88 304.16 18.88L304.16 18.88L304.16 18.88Q302.04 18.88 300.92 18L300.92 18L300.92 18Q299.80 17.12 299.80 15.44L299.80 15.44L299.80 15.44Q299.80 13.76 300.92 12.88L300.92 12.88L300.92 12.88Q302.04 12 304.16 12L304.16 12ZM308 22.08L308 39.56L308 39.56Q308 41.20 308.50 41.82L308.50 41.82L308.50 41.82Q309 42.44 310.24 42.44L310.24 42.44L310.24 43.28L310.24 43.28Q305.92 43.12 304.56 43.12L304.56 43.12L304.56 43.12Q303.20 43.12 298.56 43.28L298.56 43.28L298.56 42.44L298.56 42.44Q299.80 42.44 300.30 41.82L300.30 41.82L300.30 41.82Q300.80 41.20 300.80 39.56L300.80 39.56L300.80 26.88L300.80 26.88Q300.80 25.04 300.30 24.20L300.30 24.20L300.30 24.20Q299.80 23.36 298.56 23.36L298.56 23.36L298.56 22.52L298.56 22.52Q299.84 22.64 301.04 22.64L301.04 22.64L301.04 22.64Q305.20 22.64 308 22.08L308 22.08ZM328.56 21.96L328.56 21.96Q331.76 21.96 333.08 23.56L333.08 23.56L333.08 23.56Q333.68 24.28 333.96 25.50L333.96 25.50L333.96 25.50Q334.24 26.72 334.24 28.72L334.24 28.72L334.24 39.56L334.24 39.56Q334.24 41.20 334.74 41.82L334.74 41.82L334.74 41.82Q335.24 42.44 336.48 42.44L336.48 42.44L336.48 43.28L336.48 43.28Q332.16 43.12 330.88 43.12L330.88 43.12L330.88 43.12Q329.52 43.12 325.20 43.28L325.20 43.28L325.20 42.44L325.20 42.44Q326.24 42.44 326.64 41.82L326.64 41.82L326.64 41.82Q327.04 41.20 327.04 39.56L327.04 39.56L327.04 26.56L327.04 26.56Q327.04 25.28 326.58 24.66L326.58 24.66L326.58 24.66Q326.12 24.04 325.08 24.04L325.08 24.04L325.08 24.04Q323.92 24.04 323.06 24.86L323.06 24.86L323.06 24.86Q322.20 25.68 322.20 26.92L322.20 26.92L322.20 39.56L322.20 39.56Q322.20 41.20 322.60 41.82L322.60 41.82L322.60 41.82Q323 42.44 324.04 42.44L324.04 42.44L324.04 43.28L324.04 43.28Q320.04 43.12 318.76 43.12L318.76 43.12L318.76 43.12Q317.40 43.12 312.76 43.28L312.76 43.28L312.76 42.44L312.76 42.44Q314 42.44 314.50 41.82L314.50 41.82L314.50 41.82Q315 41.20 315 39.56L315 39.56L315 26.88L315 26.88Q315 25.04 314.50 24.20L314.50 24.20L314.50 24.20Q314 23.36 312.76 23.36L312.76 23.36L312.76 22.52L312.76 22.52Q314.04 22.64 315.24 22.64L315.24 22.64L315.24 22.64Q319.40 22.64 322.20 22.08L322.20 22.08L322.20 24.96L322.20 24.96Q324 21.96 328.56 21.96L328.56 21.96ZM361.04 39.48L361.04 39.48Q363.72 39.48 365.48 36.80L365.48 36.80L366.16 37.04L366.16 37.04Q365.32 39.84 363.32 41.84L363.32 41.84L363.32 41.84Q361.32 43.84 358.20 43.84L358.20 43.84L358.20 43.84Q355.60 43.84 353.62 42.74L353.62 42.74L353.62 42.74Q351.64 41.64 350.56 39.28L350.56 39.28L350.56 39.28Q349.20 41.56 347.60 42.56L347.60 42.56L347.60 42.56Q346 43.56 343.96 43.56L343.96 43.56L343.96 43.56Q341.40 43.56 340.10 42.18L340.10 42.18L340.10 42.18Q338.80 40.80 338.80 38.72L338.80 38.72L338.80 38.72Q338.80 36.92 339.74 35.74L339.74 35.74L339.74 35.74Q340.68 34.56 341.96 33.92L341.96 33.92L341.96 33.92Q343.24 33.28 345.28 32.60L345.28 32.60L345.28 32.60Q347.44 31.88 348.44 31.28L348.44 31.28L348.44 31.28Q349.44 30.68 349.44 29.60L349.44 29.60L349.44 26.04L349.44 26.04Q349.44 24.76 348.80 23.76L348.80 23.76L348.80 23.76Q348.16 22.76 346.60 22.76L346.60 22.76L346.60 22.76Q345.36 22.76 344.36 23.44L344.36 23.44L344.36 23.44Q345.72 23.92 346.38 24.86L346.38 24.86L346.38 24.86Q347.04 25.80 347.04 26.96L347.04 26.96L347.04 26.96Q347.04 28.52 345.94 29.46L345.94 29.46L345.94 29.46Q344.84 30.40 343.28 30.40L343.28 30.40L343.28 30.40Q341.72 30.40 340.82 29.42L340.82 29.42L340.82 29.42Q339.92 28.44 339.92 26.92L339.92 26.92L339.92 26.92Q339.92 25.72 340.52 24.84L340.52 24.84L340.52 24.84Q341.12 23.96 342.40 23.24L342.40 23.24L342.40 23.24Q344.64 21.96 348.80 21.96L348.80 21.96L348.80 21.96Q352.40 21.96 354.32 23.12L354.32 23.12L354.32 23.12Q356.52 21.96 359.24 21.96L359.24 21.96L359.24 21.96Q362.72 21.96 364.56 24.10L364.56 24.10L364.56 24.10Q366.40 26.24 366.40 30.92L366.40 30.92L356.88 30.92L356.88 30.92Q356.84 31.40 356.84 32.36L356.84 32.36L356.84 32.36Q356.84 36.20 358.06 37.84L358.06 37.84L358.06 37.84Q359.28 39.48 361.04 39.48L361.04 39.48ZM358.96 22.88L358.96 22.88Q358 22.88 357.44 24.60L357.44 24.60L357.44 24.60Q356.88 26.32 356.72 30.16L356.72 30.16L360.56 30.16L360.56 30.16Q360.60 26.96 360.20 24.92L360.20 24.92L360.20 24.92Q359.80 22.88 358.96 22.88L358.96 22.88ZM347.84 40.36L347.84 40.36Q348.52 40.36 349.10 39.94L349.10 39.94L349.10 39.94Q349.68 39.52 350.20 38.52L350.20 38.52L350.20 38.52Q349.36 36.08 349.36 32.92L349.36 32.92L349.36 32.92Q349.36 32.36 349.44 31.32L349.44 31.32L349.44 31.32Q348.84 32.08 348.20 32.68L348.20 32.68L348.20 32.68Q347.04 33.84 346.48 34.82L346.48 34.82L346.48 34.82Q345.92 35.80 345.92 37.48L345.92 37.48L345.92 37.48Q345.92 39 346.46 39.68L346.46 39.68L346.46 39.68Q347 40.36 347.84 40.36L347.84 40.36ZM383.88 21.96L383.88 21.96Q385.84 21.96 386.70 23.16L386.70 23.16L386.70 23.16Q387.56 24.36 387.56 26L387.56 26L387.56 26Q387.56 27.80 386.54 28.86L386.54 28.86L386.54 28.86Q385.52 29.92 383.88 29.92L383.88 29.92L383.88 29.92Q382.16 29.92 381.24 29.14L381.24 29.14L381.24 29.14Q380.32 28.36 380.32 27.04L380.32 27.04L380.32 27.04Q380.32 24.68 382.36 23.32L382.36 23.32L382.36 23.32Q381.64 23.32 381.08 23.60L381.08 23.60L381.08 23.60Q380.08 24.04 379.40 25.02L379.40 25.02L379.40 25.02Q378.72 26 378.72 27.16L378.72 27.16L378.72 39.16L378.72 39.16Q378.72 41.04 379.50 41.74L379.50 41.74L379.50 41.74Q380.28 42.44 382.16 42.44L382.16 42.44L382.16 43.28L382.16 43.28Q381.64 43.28 381.28 43.24L381.28 43.24L381.28 43.24Q377.08 43.12 375.68 43.12L375.68 43.12L375.68 43.12Q374.44 43.12 370.12 43.24L370.12 43.24L370.12 43.24Q369.80 43.28 369.28 43.28L369.28 43.28L369.28 42.44L369.28 42.44Q370.52 42.44 371.02 41.82L371.02 41.82L371.02 41.82Q371.52 41.20 371.52 39.56L371.52 39.56L371.52 26.88L371.52 26.88Q371.52 25.04 371.02 24.20L371.02 24.20L371.02 24.20Q370.52 23.36 369.28 23.36L369.28 23.36L369.28 22.52L369.28 22.52Q370.56 22.64 371.76 22.64L371.76 22.64L371.76 22.64Q375.92 22.64 378.72 22.08L378.72 22.08L378.72 24.96L378.72 24.96Q380.24 21.96 383.88 21.96L383.88 21.96ZM404.92 21.96L404.92 21.96Q408.04 21.96 409.96 24.52L409.96 24.52L409.96 24.52Q411.88 27.08 411.88 32L411.88 32L411.88 32Q411.88 38.36 409.32 41.10L409.32 41.10L409.32 41.10Q406.76 43.84 402.56 43.84L402.56 43.84L402.56 43.84Q400.24 43.84 398.84 43.08L398.84 43.08L398.84 46.40L398.84 46.40Q398.84 48.24 399.70 48.96L399.70 48.96L399.70 48.96Q400.56 49.68 402.28 49.68L402.28 49.68L402.28 50.52L401.12 50.48L401.12 50.48Q396.32 50.36 394.92 50.36L394.92 50.36L394.92 50.36Q393.72 50.36 389.40 50.52L389.40 50.52L389.40 49.68L389.40 49.68Q390.64 49.68 391.14 49.06L391.14 49.06L391.14 49.06Q391.64 48.44 391.64 46.80L391.64 46.80L391.64 26.92L391.64 26.92Q391.64 25.08 391.14 24.24L391.14 24.24L391.14 24.24Q390.64 23.40 389.40 23.40L389.40 23.40L389.40 22.56L389.40 22.56Q390.64 22.68 391.88 22.68L391.88 22.68L391.88 22.68Q396.04 22.68 398.84 22.12L398.84 22.12L398.84 24.96L398.84 24.96Q400.68 21.96 404.92 21.96L404.92 21.96ZM400.24 42.64L400.24 42.64Q402.44 42.64 403.42 40.26L403.42 40.26L403.42 40.26Q404.40 37.88 404.40 32.92L404.40 32.92L404.40 32.92Q404.40 28 403.68 26.02L403.68 26.02L403.68 26.02Q402.96 24.04 401.72 24.04L401.72 24.04L401.72 24.04Q400.56 24.04 399.70 24.86L399.70 24.86L399.70 24.86Q398.84 25.68 398.84 26.92L398.84 26.92L398.84 42.32L398.84 42.32Q399.36 42.64 400.24 42.64L400.24 42.64ZM429.60 21.96L429.60 21.96Q431.56 21.96 432.42 23.16L432.42 23.16L432.42 23.16Q433.28 24.36 433.28 26L433.28 26L433.28 26Q433.28 27.80 432.26 28.86L432.26 28.86L432.26 28.86Q431.24 29.92 429.60 29.92L429.60 29.92L429.60 29.92Q427.88 29.92 426.96 29.14L426.96 29.14L426.96 29.14Q426.04 28.36 426.04 27.04L426.04 27.04L426.04 27.04Q426.04 24.68 428.08 23.32L428.08 23.32L428.08 23.32Q427.36 23.32 426.80 23.60L426.80 23.60L426.80 23.60Q425.80 24.04 425.12 25.02L425.12 25.02L425.12 25.02Q424.44 26 424.44 27.16L424.44 27.16L424.44 39.16L424.44 39.16Q424.44 41.04 425.22 41.74L425.22 41.74L425.22 41.74Q426 42.44 427.88 42.44L427.88 42.44L427.88 43.28L427.88 43.28Q427.36 43.28 427 43.24L427 43.24L427 43.24Q422.80 43.12 421.40 43.12L421.40 43.12L421.40 43.12Q420.16 43.12 415.84 43.24L415.84 43.24L415.84 43.24Q415.52 43.28 415 43.28L415 43.28L415 42.44L415 42.44Q416.24 42.44 416.74 41.82L416.74 41.82L416.74 41.82Q417.24 41.20 417.24 39.56L417.24 39.56L417.24 26.88L417.24 26.88Q417.24 25.04 416.74 24.20L416.74 24.20L416.74 24.20Q416.24 23.36 415 23.36L415 23.36L415 22.52L415 22.52Q416.28 22.64 417.48 22.64L417.48 22.64L417.48 22.64Q421.64 22.64 424.44 22.08L424.44 22.08L424.44 24.96L424.44 24.96Q425.96 21.96 429.60 21.96L429.60 21.96ZM440.44 43.56L440.44 43.56Q437.88 43.56 436.58 42.18L436.58 42.18L436.58 42.18Q435.28 40.80 435.28 38.72L435.28 38.72L435.28 38.72Q435.28 36.92 436.22 35.74L436.22 35.74L436.22 35.74Q437.16 34.56 438.44 33.92L438.44 33.92L438.44 33.92Q439.72 33.28 441.76 32.60L441.76 32.60L441.76 32.60Q443.92 31.88 444.92 31.28L444.92 31.28L444.92 31.28Q445.92 30.68 445.92 29.60L445.92 29.60L445.92 26.04L445.92 26.04Q445.92 24.76 445.28 23.76L445.28 23.76L445.28 23.76Q444.64 22.76 443.08 22.76L443.08 22.76L443.08 22.76Q441.84 22.76 440.84 23.44L440.84 23.44L440.84 23.44Q442.20 23.92 442.86 24.86L442.86 24.86L442.86 24.86Q443.52 25.80 443.52 26.96L443.52 26.96L443.52 26.96Q443.52 28.52 442.42 29.46L442.42 29.46L442.42 29.46Q441.32 30.40 439.76 30.40L439.76 30.40L439.76 30.40Q438.20 30.40 437.30 29.42L437.30 29.42L437.30 29.42Q436.40 28.44 436.40 26.92L436.40 26.92L436.40 26.92Q436.40 25.72 437.00 24.84L437.00 24.84L437.00 24.84Q437.60 23.96 438.88 23.24L438.88 23.24L438.88 23.24Q441.12 21.96 445.28 21.96L445.28 21.96L445.28 21.96Q447.48 21.96 449.08 22.38L449.08 22.38L449.08 22.38Q450.68 22.80 451.80 23.96L451.80 23.96L451.80 23.96Q452.60 24.80 452.86 26.06L452.86 26.06L452.86 26.06Q453.12 27.32 453.12 29.56L453.12 29.56L453.12 40.28L453.12 40.28Q453.12 41.28 453.26 41.64L453.26 41.64L453.26 41.64Q453.40 42 453.76 42L453.76 42L453.76 42Q454.04 42 454.36 41.82L454.36 41.82L454.36 41.82Q454.68 41.64 454.96 41.40L454.96 41.40L455.36 42.08L455.36 42.08Q453.64 43.56 450.44 43.56L450.44 43.56L450.44 43.56Q448.04 43.56 447.08 42.74L447.08 42.74L447.08 42.74Q446.12 41.92 446.04 40.52L446.04 40.52L446.04 40.52Q444.16 43.56 440.44 43.56L440.44 43.56ZM444.44 40.36L444.44 40.36Q445.28 40.36 445.92 39.68L445.92 39.68L445.92 31.24L445.92 31.24Q445.56 31.84 444.60 32.80L444.60 32.80L444.60 32.80Q443.52 33.84 442.96 34.82L442.96 34.82L442.96 34.82Q442.40 35.80 442.40 37.48L442.40 37.48L442.40 37.48Q442.40 40.36 444.44 40.36L444.44 40.36ZM479.48 40.36L479.48 40.36Q479.56 40.52 479.84 41.04L479.84 41.04L479.84 41.04Q480.12 41.56 480.42 41.90L480.42 41.90L480.42 41.90Q480.72 42.24 481.08 42.44L481.08 42.44L481.08 43.28L481.08 43.28Q477.40 43.12 476.24 43.12L476.24 43.12L476.24 43.12Q474.92 43.12 470.60 43.28L470.60 43.28L470.60 42.44L470.60 42.44Q471.76 42.44 471.76 41.68L471.76 41.68L471.76 41.68Q471.76 41.40 471.60 41.08L471.60 41.08L468.08 33.64L468.08 33.64Q467.84 33.20 467.54 33L467.54 33L467.54 33Q467.24 32.80 466.80 32.76L466.80 32.76L466.80 39.56L466.80 39.56Q466.80 41.20 467.30 41.82L467.30 41.82L467.30 41.82Q467.80 42.44 469.04 42.44L469.04 42.44L469.04 43.28L469.04 43.28Q464.72 43.12 463.36 43.12L463.36 43.12L463.36 43.12Q462.00 43.12 457.36 43.28L457.36 43.28L457.36 42.44L457.36 42.44Q458.60 42.44 459.10 41.82L459.10 41.82L459.10 41.82Q459.60 41.20 459.60 39.56L459.60 39.56L459.60 16.80L459.60 16.80Q459.60 14.96 459.10 14.12L459.10 14.12L459.10 14.12Q458.60 13.28 457.36 13.28L457.36 13.28L457.36 12.44L457.36 12.44Q458.60 12.56 459.84 12.56L459.84 12.56L459.84 12.56Q464.00 12.56 466.80 12L466.80 12L466.80 32L466.80 32Q467.92 32 468.52 31.40L468.52 31.40L471.60 28.52L471.60 28.52Q473.00 27.24 473.00 25.92L473.00 25.92L473.00 25.92Q473.00 24.88 472.10 24.16L472.10 24.16L472.10 24.16Q471.20 23.44 469.80 23.32L469.80 23.32L469.80 22.52L469.80 22.52Q472.08 22.64 474.60 22.64L474.60 22.64L474.60 22.64Q478.52 22.64 480.08 22.52L480.08 22.52L480.08 23.32L480.08 23.32Q477.32 24.08 474.16 27.24L474.16 27.24L473.12 28.28L479.48 40.36ZM491.24 21.96L491.24 21.96Q492.80 21.96 494.18 22.30L494.18 22.30L494.18 22.30Q495.56 22.64 496.28 23.04L496.28 23.04L496.28 23.04Q496.72 23.28 497.00 23.28L497.00 23.28L497.00 23.28Q497.84 23.28 498.00 22L498.00 22L498.80 22L498.80 22Q498.64 24.08 498.64 29.20L498.64 29.20L497.84 29.20L497.84 29.20Q497.52 26.56 496.34 24.74L496.34 24.74L496.34 24.74Q495.16 22.92 492.92 22.92L492.92 22.92L492.92 22.92Q491.92 22.92 491.24 23.52L491.24 23.52L491.24 23.52Q490.56 24.12 490.56 25.16L490.56 25.16L490.56 25.16Q490.56 26.48 491.44 27.50L491.44 27.50L491.44 27.50Q492.32 28.52 494.20 30L494.20 30L494.20 30Q494.28 30.04 495.36 30.92L495.36 30.92L495.36 30.92Q497.60 32.76 498.64 34.18L498.64 34.18L498.64 34.18Q499.68 35.60 499.68 37.68L499.68 37.68L499.68 37.68Q499.68 39.44 498.60 40.86L498.60 40.86L498.60 40.86Q497.52 42.28 495.66 43.06L495.66 43.06L495.66 43.06Q493.80 43.84 491.60 43.84L491.60 43.84L491.60 43.84Q489.08 43.84 487.48 42.84L487.48 42.84L487.48 42.84Q486.80 42.48 486.36 42.32L486.36 42.32L486.36 42.32Q485.92 42.16 485.48 42.16L485.48 42.16L485.48 42.16Q484.72 42.16 484.36 43.56L484.36 43.56L483.56 43.56L483.56 43.56Q483.72 41.28 483.72 35.56L483.72 35.56L484.52 35.56L484.52 35.56Q484.88 38.84 486.28 40.84L486.28 40.84L486.28 40.84Q487.68 42.84 489.80 42.84L489.80 42.84L489.80 42.84Q490.80 42.84 491.46 42.28L491.46 42.28L491.46 42.28Q492.12 41.72 492.12 40.64L492.12 40.64L492.12 40.64Q492.12 39.52 491.66 38.64L491.66 38.64L491.66 38.64Q491.20 37.76 490.54 37.06L490.54 37.06L490.54 37.06Q489.88 36.36 488.40 35.04L488.40 35.04L488.40 35.04Q486.72 33.48 485.84 32.56L485.84 32.56L485.84 32.56Q484.96 31.64 484.34 30.42L484.34 30.42L484.34 30.42Q483.72 29.20 483.72 27.72L483.72 27.72L483.72 27.72Q483.72 26 484.76 24.68L484.76 24.68L484.76 24.68Q485.80 23.36 487.52 22.66L487.52 22.66L487.52 22.66Q489.24 21.96 491.24 21.96L491.24 21.96ZM508.32 12L508.32 12Q510.40 12 511.54 12.88L511.54 12.88L511.54 12.88Q512.68 13.76 512.68 15.44L512.68 15.44L512.68 15.44Q512.68 17.12 511.54 18L511.54 18L511.54 18Q510.40 18.88 508.32 18.88L508.32 18.88L508.32 18.88Q506.20 18.88 505.08 18L505.08 18L505.08 18Q503.96 17.12 503.96 15.44L503.96 15.44L503.96 15.44Q503.96 13.76 505.08 12.88L505.08 12.88L505.08 12.88Q506.20 12 508.32 12L508.32 12ZM512.16 22.08L512.16 39.56L512.16 39.56Q512.16 41.20 512.66 41.82L512.66 41.82L512.66 41.82Q513.16 42.44 514.40 42.44L514.40 42.44L514.40 43.28L514.40 43.28Q510.08 43.12 508.72 43.12L508.72 43.12L508.72 43.12Q507.36 43.12 502.72 43.28L502.72 43.28L502.72 42.44L502.72 42.44Q503.96 42.44 504.46 41.82L504.46 41.82L504.46 41.82Q504.96 41.20 504.96 39.56L504.96 39.56L504.96 26.88L504.96 26.88Q504.96 25.04 504.46 24.20L504.46 24.20L504.46 24.20Q503.96 23.36 502.72 23.36L502.72 23.36L502.72 22.52L502.72 22.52Q504.00 22.64 505.20 22.64L505.20 22.64L505.20 22.64Q509.36 22.64 512.16 22.08L512.16 22.08ZM525.32 21.96L525.32 21.96Q526.88 21.96 528.26 22.30L528.26 22.30L528.26 22.30Q529.64 22.64 530.36 23.04L530.36 23.04L530.36 23.04Q530.80 23.28 531.08 23.28L531.08 23.28L531.08 23.28Q531.92 23.28 532.08 22L532.08 22L532.88 22L532.88 22Q532.72 24.08 532.72 29.20L532.72 29.20L531.92 29.20L531.92 29.20Q531.60 26.56 530.42 24.74L530.42 24.74L530.42 24.74Q529.24 22.92 527 22.92L527 22.92L527 22.92Q526 22.92 525.32 23.52L525.32 23.52L525.32 23.52Q524.64 24.12 524.64 25.16L524.64 25.16L524.64 25.16Q524.64 26.48 525.52 27.50L525.52 27.50L525.52 27.50Q526.40 28.52 528.28 30L528.28 30L528.28 30Q528.36 30.04 529.44 30.92L529.44 30.92L529.44 30.92Q531.68 32.76 532.72 34.18L532.72 34.18L532.72 34.18Q533.76 35.60 533.76 37.68L533.76 37.68L533.76 37.68Q533.76 39.44 532.68 40.86L532.68 40.86L532.68 40.86Q531.60 42.28 529.74 43.06L529.74 43.06L529.74 43.06Q527.88 43.84 525.68 43.84L525.68 43.84L525.68 43.84Q523.16 43.84 521.56 42.84L521.56 42.84L521.56 42.84Q520.88 42.48 520.44 42.32L520.44 42.32L520.44 42.32Q520 42.16 519.56 42.16L519.56 42.16L519.56 42.16Q518.80 42.16 518.44 43.56L518.44 43.56L517.64 43.56L517.64 43.56Q517.80 41.28 517.80 35.56L517.80 35.56L518.60 35.56L518.60 35.56Q518.96 38.84 520.36 40.84L520.36 40.84L520.36 40.84Q521.76 42.84 523.88 42.84L523.88 42.84L523.88 42.84Q524.88 42.84 525.54 42.28L525.54 42.28L525.54 42.28Q526.20 41.72 526.20 40.64L526.20 40.64L526.20 40.64Q526.20 39.52 525.74 38.64L525.74 38.64L525.74 38.64Q525.28 37.76 524.62 37.06L524.62 37.06L524.62 37.06Q523.96 36.36 522.48 35.04L522.48 35.04L522.48 35.04Q520.80 33.48 519.92 32.56L519.92 32.56L519.92 32.56Q519.04 31.64 518.42 30.42L518.42 30.42L518.42 30.42Q517.80 29.20 517.80 27.72L517.80 27.72L517.80 27.72Q517.80 26 518.84 24.68L518.84 24.68L518.84 24.68Q519.88 23.36 521.60 22.66L521.60 22.66L521.60 22.66Q523.32 21.96 525.32 21.96L525.32 21.96Z" transform="rotate(0 267.85999393463135 31.260000228881836)"></path><defs id="SvgjsDefs1034"></defs></svg></g><g id="SvgjsG1037" transform="rotate(0 265.8984375 280.0078125)"><svg xmlns="http://www.w3.org/2000/svg" xmlns:xlink="http://www.w3.org/1999/xlink" width="88.921875" viewBox="2.059999942779541 5.380000114440918 88.93000030517578 19" overflow="visible" style="overflow: visible;" transform="" version="1.1" xmlns:svgjs="http://svgjs.com/svgjs" preserveAspectRatio="none" height="18.984375" x="221.4375" y="270.515625" fill="#000000" stroke="none"><path stroke="none" fill="rgb(143, 143, 143)" d="M13.50 5.64L15.07 5.64L15.07 18.26L15.07 18.26Q15.06 20.12 14.24 21.51L14.24 21.51L14.24 21.51Q13.43 22.89 11.95 23.63L11.95 23.63L11.95 23.63Q10.47 24.38 8.56 24.38L8.56 24.38L8.56 24.38Q5.64 24.38 3.88 22.78L3.88 22.78L3.88 22.78Q2.12 21.19 2.06 18.37L2.06 18.37L2.06 5.64L3.61 5.64L3.61 18.14L3.61 18.14Q3.61 20.48 4.94 21.77L4.94 21.77L4.94 21.77Q6.27 23.05 8.56 23.05L8.56 23.05L8.56 23.05Q10.84 23.05 12.17 21.76L12.17 21.76L12.17 21.76Q13.50 20.46 13.50 18.15L13.50 18.15L13.50 5.64ZM20.18 5.64L26.00 21.84L26.10 22.23L26.21 21.84L32.03 5.64L33.74 5.64L26.86 24.12L25.36 24.12L18.48 5.64L20.18 5.64ZM43.64 24.12L37.46 24.12L37.46 5.64L42.92 5.64L42.92 5.64Q45.89 5.64 47.42 6.86L47.42 6.86L47.42 6.86Q48.96 8.09 48.96 10.47L48.96 10.47L48.96 10.47Q48.96 11.91 48.18 12.97L48.18 12.97L48.18 12.97Q47.40 14.03 46.04 14.49L46.04 14.49L46.04 14.49Q47.65 14.84 48.64 16.07L48.64 16.07L48.64 16.07Q49.62 17.30 49.62 18.92L49.62 18.92L49.62 18.92Q49.62 21.37 48.04 22.74L48.04 22.74L48.04 22.74Q46.46 24.12 43.64 24.12L43.64 24.12ZM43.83 15.23L39.02 15.23L39.02 22.80L43.70 22.80L43.70 22.80Q45.71 22.80 46.88 21.78L46.88 21.78L46.88 21.78Q48.06 20.76 48.06 18.94L48.06 18.94L48.06 18.94Q48.06 17.23 46.94 16.23L46.94 16.23L46.94 16.23Q45.81 15.23 43.83 15.23L43.83 15.23ZM39.02 6.97L39.02 13.93L43.29 13.93L43.29 13.93Q45.24 13.89 46.31 13.01L46.31 13.01L46.31 13.01Q47.39 12.12 47.39 10.44L47.39 10.44L47.39 10.44Q47.39 8.66 46.27 7.81L46.27 7.81L46.27 7.81Q45.16 6.97 42.92 6.97L42.92 6.97L39.02 6.97ZM73.61 24.12L71.69 18.94L63.30 18.94L61.40 24.12L59.76 24.12L66.75 5.64L68.24 5.64L75.23 24.12L73.61 24.12ZM67.49 7.54L63.78 17.61L71.20 17.61L67.49 7.54ZM89.41 19.58L89.41 19.58L89.41 19.58Q89.41 18.04 88.33 17.15L88.33 17.15L88.33 17.15Q87.25 16.25 84.38 15.44L84.38 15.44L84.38 15.44Q81.51 14.64 80.19 13.69L80.19 13.69L80.19 13.69Q78.32 12.34 78.32 10.16L78.32 10.16L78.32 10.16Q78.32 8.04 80.06 6.71L80.06 6.71L80.06 6.71Q81.81 5.38 84.52 5.38L84.52 5.38L84.52 5.38Q86.36 5.38 87.82 6.09L87.82 6.09L87.82 6.09Q89.27 6.80 90.07 8.07L90.07 8.07L90.07 8.07Q90.87 9.34 90.87 10.91L90.87 10.91L89.30 10.91L89.30 10.91Q89.30 9.01 88.00 7.86L88.00 7.86L88.00 7.86Q86.71 6.72 84.52 6.72L84.52 6.72L84.52 6.72Q82.40 6.72 81.15 7.66L81.15 7.66L81.15 7.66Q79.89 8.61 79.89 10.13L79.89 10.13L79.89 10.13Q79.89 11.54 81.02 12.43L81.02 12.43L81.02 12.43Q82.15 13.32 84.64 14.00L84.64 14.00L84.64 14.00Q87.13 14.68 88.41 15.41L88.41 15.41L88.41 15.41Q89.69 16.14 90.34 17.15L90.34 17.15L90.34 17.15Q90.99 18.17 90.99 19.55L90.99 19.55L90.99 19.55Q90.99 21.73 89.24 23.05L89.24 23.05L89.24 23.05Q87.49 24.38 84.64 24.38L84.64 24.38L84.64 24.38Q82.68 24.38 81.05 23.68L81.05 23.68L81.05 23.68Q79.42 22.98 78.58 21.72L78.58 21.72L78.58 21.72Q77.73 20.46 77.73 18.84L77.73 18.84L79.29 18.84L79.29 18.84Q79.29 20.79 80.75 21.92L80.75 21.92L80.75 21.92Q82.21 23.05 84.64 23.05L84.64 23.05L84.64 23.05Q86.80 23.05 88.10 22.10L88.10 22.10L88.10 22.10Q89.41 21.15 89.41 19.58Z" transform="rotate(0 46.52500009536743 14.880000114440918)"></path><defs id="SvgjsDefs1036"></defs></svg></g></svg>